<!DOCTYPE svg PUBLIC "-//W3C//DTD SVG 20010904//EN" "http://www.w3.org/TR/2001/REC-SVG-20010904/DTD/svg10.dtd">
<svg version="1.0" xmlns="http://www.w3.org/2000/svg" width="1600px" height="1598px" viewBox="0 0 16000 15980" preserveAspectRatio="xMidYMid meet">
<g id="layer101" fill="#ffffff" stroke="none">
 <path d="M7410 13883 c-19 -2 -46 -13 -61 -24 -15 -10 -30 -19 -34 -19 -25 0 -95 -107 -112 -170 -18 -65 -18 -7445 0 -7510 12 -46 49 -112 77 -140 9 -8 36 -28 60 -45 l45 -30 295 0 c227 0 302 3 328 14 17 7 32 17 32 22 0 5 5 9 11 9 13 0 69 55 69 68 0 6 5 12 11 14 5 2 20 30 32 63 l22 60 3 2333 2 2332 523 0 c287 0 735 -3 995 -7 l472 -6 0 -917 0 -918 26 -56 c36 -79 101 -141 168 -160 70 -21 528 -23 591 -3 86 26 129 65 179 165 l26 51 0 2323 -1 2323 -22 52 c-27 63 -67 109 -126 149 l-45 29 -300 0 -301 0 -51 -32 c-56 -36 -88 -75 -121 -146 l-23 -49 0 -899 0 -899 -995 0 -995 0 -2 888 c-3 885 -3 887 -25 947 -12 33 -27 61 -32 63 -6 2 -11 8 -11 14 0 13 -56 68 -69 68 -6 0 -11 4 -11 8 0 5 -12 15 -27 22 -21 11 -93 14 -298 16 -148 1 -286 0 -305 -3z"/>
 <path d="M5050 11615 c-8 -2 -78 -11 -155 -19 -243 -28 -493 -71 -665 -113 -36 -9 -87 -19 -115 -24 -27 -4 -70 -14 -94 -23 -24 -9 -53 -16 -65 -16 -11 0 -48 -9 -81 -20 -86 -28 -165 -51 -205 -60 -38 -10 -253 -85 -340 -120 -30 -12 -69 -27 -85 -34 -17 -6 -43 -19 -58 -29 -14 -9 -31 -17 -37 -17 -14 0 -93 -52 -103 -67 -4 -7 -13 -13 -20 -13 -7 0 -18 -14 -26 -31 -30 -69 33 -123 264 -224 84 -37 238 -95 251 -95 6 0 33 -8 60 -19 68 -26 276 -87 409 -120 286 -71 482 -109 800 -157 281 -41 765 -43 939 -3 50 11 114 29 141 40 28 10 55 19 60 19 6 0 21 9 35 20 14 11 31 20 38 20 32 0 184 140 197 180 4 11 11 20 16 20 5 0 9 6 9 14 0 7 10 35 22 62 21 45 23 64 22 214 0 158 -1 168 -28 229 -44 102 -118 190 -201 238 -102 59 -183 89 -320 120 -99 23 -136 25 -380 28 -148 2 -277 2 -285 0z"/>
 <path d="M5060 9675 c-8 -2 -80 -11 -160 -20 -383 -43 -777 -123 -1165 -237 -93 -28 -336 -110 -405 -138 -30 -12 -69 -27 -85 -34 -17 -6 -43 -19 -58 -29 -14 -9 -31 -17 -36 -17 -12 0 -79 -43 -102 -65 -9 -8 -20 -15 -25 -15 -5 0 -15 -14 -23 -31 -27 -61 11 -102 169 -180 36 -17 74 -36 84 -41 38 -20 161 -68 173 -68 7 0 32 -9 55 -19 91 -42 479 -151 688 -195 41 -9 116 -24 165 -35 91 -19 251 -47 445 -76 276 -42 769 -45 943 -4 117 26 257 76 257 91 0 5 7 8 15 8 20 0 111 67 150 111 48 53 69 89 96 159 22 59 24 79 23 225 0 152 -2 163 -28 224 -44 102 -117 189 -201 238 -73 43 -176 86 -245 103 -165 40 -198 43 -455 46 -143 1 -267 1 -275 -1z"/>
 <path d="M5320 7720 c-122 -14 -230 -30 -320 -47 -47 -9 -108 -19 -136 -23 -27 -4 -75 -15 -105 -23 -29 -9 -92 -25 -139 -37 -90 -23 -190 -51 -280 -79 -30 -10 -89 -28 -130 -41 -88 -27 -138 -44 -318 -110 -107 -40 -298 -119 -364 -151 -10 -5 -26 -13 -35 -18 -10 -4 -58 -28 -108 -51 -49 -24 -102 -52 -117 -62 -14 -10 -31 -18 -37 -18 -7 0 -17 -5 -24 -11 -7 -5 -25 -19 -42 -29 -16 -11 -39 -25 -49 -32 -39 -26 -98 -84 -112 -110 -34 -66 28 -111 256 -187 358 -119 978 -216 1479 -231 609 -17 927 24 1199 157 70 34 193 123 201 146 2 6 12 18 21 27 21 18 52 76 80 148 31 82 29 284 -4 386 -53 162 -149 259 -337 340 -107 46 -409 76 -579 56z"/>
 <path d="M5905 6046 c-102 -27 -208 -62 -245 -81 -14 -7 -59 -29 -100 -49 -41 -20 -91 -46 -110 -58 -33 -21 -51 -32 -102 -61 -37 -20 -113 -69 -118 -76 -3 -3 -12 -10 -21 -16 -56 -34 -135 -91 -142 -102 -4 -7 -12 -13 -17 -13 -6 0 -18 -6 -27 -14 -10 -8 -70 -57 -134 -108 -64 -51 -136 -110 -160 -131 -24 -21 -71 -62 -104 -90 -63 -55 -523 -512 -587 -585 -21 -23 -38 -46 -38 -52 0 -5 -4 -10 -8 -10 -5 0 -34 -33 -65 -72 -31 -40 -63 -80 -72 -89 -8 -9 -15 -21 -15 -27 0 -5 -4 -12 -9 -14 -10 -4 -57 -77 -88 -138 -13 -26 -23 -63 -23 -87 0 -38 4 -44 32 -59 18 -9 59 -19 93 -21 61 -5 372 29 435 47 19 6 60 14 90 19 112 17 486 117 681 182 30 11 61 19 67 19 7 0 31 9 55 19 23 10 51 21 62 24 31 8 137 46 172 63 17 7 34 14 38 14 4 0 21 6 38 14 18 8 61 26 97 41 236 99 476 223 604 313 26 17 50 32 53 32 4 0 13 7 22 15 9 8 43 37 76 63 210 171 315 349 315 537 0 182 -121 400 -279 499 -117 74 -303 95 -466 52z"/>
 <path d="M7023 4770 c-103 -30 -210 -99 -309 -200 -75 -77 -179 -211 -220 -285 -29 -52 -41 -73 -62 -105 -39 -61 -202 -400 -217 -450 -4 -14 -14 -34 -21 -45 -8 -11 -14 -25 -14 -31 0 -6 -8 -29 -17 -50 -23 -53 -82 -219 -98 -276 -7 -25 -18 -55 -24 -66 -6 -11 -15 -37 -20 -58 -5 -22 -17 -59 -25 -84 -110 -335 -209 -798 -219 -1020 -7 -137 3 -218 29 -237 31 -23 98 -8 179 42 22 13 47 27 55 31 8 4 17 10 20 13 3 4 27 22 53 41 27 19 56 43 65 53 9 9 22 17 29 17 7 0 13 4 13 8 0 5 24 28 53 51 95 77 457 423 457 437 0 3 26 32 58 64 87 90 114 119 178 195 32 39 64 75 70 80 30 27 253 316 289 374 6 9 12 18 16 21 12 11 69 102 69 110 0 4 4 10 9 12 23 8 185 309 238 443 51 127 82 268 83 375 0 65 -26 188 -49 235 -34 66 -43 77 -113 146 -154 151 -370 212 -555 159z"/>
 <path d="M8585 4206 c-73 -15 -164 -58 -206 -97 -17 -16 -35 -29 -39 -29 -5 0 -12 -9 -15 -20 -3 -11 -10 -20 -14 -20 -29 0 -130 -205 -151 -305 -4 -22 -16 -74 -25 -115 -28 -120 -26 -609 4 -825 35 -254 70 -454 123 -690 29 -131 87 -349 115 -435 8 -25 19 -61 23 -80 8 -36 30 -101 60 -180 9 -25 23 -61 30 -80 7 -19 19 -53 27 -75 24 -68 105 -225 136 -263 54 -69 90 -73 142 -17 28 30 75 102 75 116 0 6 8 23 18 37 11 15 21 36 25 47 3 11 21 58 41 105 20 46 36 89 36 95 1 5 9 28 20 50 11 22 19 46 20 54 0 8 9 39 19 70 22 64 49 156 116 394 9 32 20 79 24 105 5 26 15 76 24 112 39 160 83 410 114 655 14 107 18 210 18 440 0 273 -2 309 -22 400 -54 240 -124 369 -259 473 -23 18 -46 32 -50 32 -5 0 -27 9 -49 19 -83 40 -254 52 -380 27z"/>
 </g>

</svg>